<!-- font: bukhari script -->
<svg xmlns="http://www.w3.org/2000/svg" fill="none" viewBox="0 0 1080 1080">
    <g transform="translate(0.000000,1080.000000) scale(0.100000,-0.100000)" stroke="none">
    <path d="M3983 8439 c-203 -18 -397 -96 -559 -228 l-62 -49 -18 41 c-28 62
        -119 148 -194 184 -84 40 -149 53 -264 53 -225 0 -420 -102 -498 -261 -14 -30
        -401 -1102 -859 -2384 l-833 -2330 0 -120 c0 -100 3 -129 22 -175 101 -253
        419 -352 698 -219 98 47 217 167 266 269 20 41 113 289 207 550 153 431 341
        953 911 2540 106 294 213 575 237 625 110 218 247 361 411 427 49 20 75 23
        187 23 139 0 157 -5 233 -62 99 -74 123 -265 63 -500 -29 -113 -26 -103 -639
        -1789 -308 -847 -566 -1568 -572 -1602 -19 -94 -9 -225 23 -295 102 -226 425
        -314 685 -186 149 73 249 195 319 389 23 63 306 855 628 1760 378 1060 605
        1684 640 1755 130 269 292 439 482 506 42 15 84 21 153 22 90 1 100 -1 165
        -34 118 -58 175 -157 175 -304 0 -39 -8 -100 -18 -135 -11 -36 -182 -515 -381
        -1065 -593 -1635 -563 -1547 -593 -1700 -33 -163 -31 -382 5 -519 98 -370 377
        -614 810 -708 134 -29 413 -31 552 -5 664 129 1157 663 1472 1594 74 222 75
        303 4 415 -98 154 -332 214 -503 130 -35 -17 -87 -55 -116 -84 -57 -57 -87
        -112 -152 -283 -109 -285 -282 -582 -434 -742 -249 -264 -542 -320 -641 -124
        -14 28 -17 51 -12 120 6 99 3 90 240 736 694 1895 852 2332 875 2415 23 86 26
        113 26 290 1 174 -2 204 -23 284 -52 197 -144 360 -276 485 -133 126 -278 206
        -473 259 -91 25 -110 26 -317 26 -189 0 -234 -3 -321 -22 -280 -61 -541 -187
        -740 -360 l-81 -70 -54 75 c-110 155 -257 277 -393 328 -124 47 -302 67 -463
        54z"/>
        <path d="M9175 5879 c-226 -17 -430 -85 -612 -206 -89 -59 -229 -198 -288
        -287 -155 -234 -206 -508 -141 -759 58 -225 175 -413 506 -812 251 -303 323
        -402 389 -534 112 -222 88 -478 -63 -663 -128 -158 -362 -260 -556 -243 -165
        15 -293 62 -394 145 -132 110 -173 209 -179 435 -4 114 -8 151 -26 198 -61
        158 -181 234 -359 225 -104 -5 -176 -34 -247 -99 -95 -87 -132 -208 -122 -392
        13 -245 84 -445 223 -630 189 -251 499 -438 841 -506 493 -98 1022 60 1371
        411 204 205 324 421 379 680 24 115 23 325 -1 438 -67 309 -217 558 -578 963
        -244 273 -314 371 -370 513 -84 216 -20 365 192 445 174 66 327 -15 450 -237
        68 -123 106 -166 178 -201 50 -24 69 -28 147 -28 79 0 97 4 149 29 73 36 133
        94 166 161 22 45 25 62 25 165 -1 106 -3 121 -33 197 -86 216 -260 394 -488
        499 -91 43 -248 83 -344 90 -41 3 -86 6 -100 8 -14 1 -65 -1 -115 -5z" />
    </g>

    <style>
        path { fill: #000; }
        @media (prefers-color-scheme: dark) {
            path { fill: #FFF; }
        }
    </style>
</svg>
