<!-- font: bukhari script -->
<svg width="1049" height="233" viewBox="0 0 1049 233" fill="none" xmlns="http://www.w3.org/2000/svg">
<g clip-path="url(#clip0_14_33)">
<path d="M944.5 1.78879C942.3 2.78879 939.5 4.68879 938.3 5.98879C934.5 10.1888 809.9 207.889 808.4 212.089C806.6 217.289 806.6 220.289 808.6 224.489C813.3 234.389 830.2 234.889 839.1 225.189C842.9 221.289 967.4 24.1888 968.8 19.9888C970.5 15.1888 970.3 11.8888 968.1 7.88879C964.3 0.78879 953 -2.21121 944.5 1.78879Z" fill="black"/>
<path d="M223.5 13.5888C211.2 15.1888 197.9 21.8888 189 30.8888C179.1 40.8888 174 52.6888 174 65.9888C174 81.9888 179.4 91.6888 208.7 127.489C212.7 132.389 217.7 139.489 219.7 143.389C223.3 149.989 223.5 150.889 223.5 159.389C223.5 169.789 221.7 174.189 214.9 180.989C208.5 187.389 201.1 190.289 191.5 190.389C178.3 190.389 168.9 185.689 163.4 176.389C161.4 172.889 160.7 169.989 160 161.389C159.3 151.689 158.9 150.289 156.3 147.089C152.5 142.289 147.6 139.889 141.8 139.889C136 139.889 132.3 141.189 128.6 144.689C119.9 152.889 119.7 170.089 128.2 187.789C135.6 203.389 151.2 215.589 170.5 220.989C182 224.289 200.2 224.289 211.4 221.089C233.2 214.789 250.8 200.289 259.5 181.389C263.7 172.489 265.1 165.589 265.1 154.889C265.1 136.389 257.3 120.989 235.6 96.6888C219.6 78.5888 215 71.0888 215 62.5888C215 56.7888 216.9 53.1888 221.6 49.9888C225.2 47.4888 232.2 46.1888 236.4 47.2888C240.4 48.2888 244.8 52.6888 249 59.8888C254 68.3888 258.3 71.3888 265.5 71.2888C286 70.9888 288.9 46.6888 270.6 28.2888C258.9 16.6888 241.5 11.1888 223.5 13.5888Z" fill="black"/>
<path d="M466.2 14.9888C461.9 17.0888 459.7 19.6888 456.6 25.6888C455.7 27.4888 445.2 56.9888 433.4 91.1888C421.5 125.389 410.8 155.189 409.5 157.489C406.8 162.189 400.6 167.989 395.9 170.489C394.1 171.389 389.8 172.389 386.4 172.689L380.3 173.089L379.7 169.389C379.2 166.189 379.5 164.989 382.1 161.789C387.9 154.489 395 132.789 395 122.589C395 109.189 388.9 97.5888 378.1 90.1888C369.3 84.1888 360.8 81.6888 348.5 81.6888C327.2 81.6888 308.8 91.8888 299.8 108.489C297 113.689 278.9 164.089 276.9 172.189C276.3 174.789 275.9 180.689 276.2 185.689C276.6 192.689 277.2 195.489 279.5 200.189C288.4 218.289 312.1 227.489 336.3 222.389C348.9 219.789 357.8 214.489 364.8 205.689L368.2 201.389H381.5H394.9L394.2 203.889C393.8 205.289 393.5 208.589 393.5 211.189C393.5 215.489 393.9 216.489 397.2 219.389C401.3 223.189 405.9 224.389 412.5 223.489C418.2 222.589 425.8 217.389 428.1 212.889C429.1 210.989 433.1 199.289 437.1 186.889C441 174.489 444.4 164.089 444.6 163.689C444.9 163.289 446.7 164.089 448.6 165.389C453.4 168.689 458.3 169.489 464.9 168.089C467.9 167.389 470.5 167.089 470.6 167.189C470.8 167.389 469.8 170.589 468.4 174.389C461.6 193.089 465.7 210.989 478.6 218.489C493.9 227.489 517.7 224.889 535 212.489C539.7 209.089 539.8 209.089 541.6 210.989C547.6 217.589 560.7 222.789 573.5 223.589C592.7 224.689 610.7 217.489 619.7 204.889L622.5 201.089L633 201.589C642.3 202.089 650 201.389 655 199.489C656.1 199.089 657 200.189 658.3 203.189C663.2 215.189 678.9 223.889 695.3 223.889C718.8 223.789 741.9 206.989 755.5 179.989C759.6 171.689 765 157.289 765 154.389C765 145.589 755.1 139.089 746 141.789C742.2 142.889 735 149.889 735 152.389C735 152.989 732.3 158.889 729.1 165.389C722.1 179.589 714.4 188.889 706.5 192.489C697.9 196.589 691 194.889 691 188.789C691 187.189 702.8 151.789 717.2 110.089C746 26.9888 746 26.9888 741.1 19.9888C738.4 16.2888 732.1 12.9888 727.5 12.8888C722.8 12.8888 715.9 16.8888 712.8 21.3888C711.1 23.7888 701 51.3888 686.6 92.1888C663.7 157.589 663.1 159.189 658.9 163.589C653.2 169.489 646.1 172.889 639.4 172.889H634.2L633.8 168.889C633.5 165.889 633.9 164.389 635.3 163.189C638.1 160.589 643.7 148.289 646.5 138.389C653.4 114.489 646.4 96.5888 626.5 86.6888C619.2 82.9888 611.7 81.4888 601.5 81.5888C580.6 81.7888 560.7 93.7888 552.7 111.089C551.4 113.989 545.9 128.989 540.6 144.389C535.2 159.789 529.9 174.389 528.7 176.789C524 186.389 513.5 194.889 506.4 194.889C500.2 194.889 499.7 191.889 503.7 179.689C507.2 168.989 507.5 158.089 504.5 152.889L502.4 149.389L507.3 145.589C527.6 129.489 524.8 96.8888 502 85.3888C495.4 82.0888 486.5 80.5888 479.3 81.7888C476.1 82.2888 473.4 82.5888 473.3 82.4888C473.1 82.2888 474.4 78.1888 476.1 73.2888C487.3 40.8888 490 32.2888 490 29.4888C489.9 17.5888 476.9 9.58879 466.2 14.9888ZM353.8 111.289C360.9 114.989 361.8 119.589 358 133.689L355.8 141.889H352.1C344.5 141.989 335.8 148.389 332.5 156.289C330 162.289 330.4 170.089 333.4 175.289C334.8 177.589 336.6 180.089 337.4 180.889C339.6 182.589 339.4 183.689 336.4 187.689C331.6 193.889 321.4 196.689 315.1 193.389C311.3 191.489 309.6 187.089 310.2 180.589C310.8 174.289 328.2 123.989 331.7 118.589C336.1 111.789 347.5 107.989 353.8 111.289ZM485.6 112.989C490.2 117.289 488.2 125.289 481.3 130.589C478 133.089 476.8 133.389 469.5 133.489C465 133.589 459.9 133.989 458.2 134.389C456.4 134.689 455 134.689 455 134.189C455 131.389 460.5 119.989 463.3 117.089C470.1 109.789 480.2 107.989 485.6 112.989ZM608.7 111.589C610.8 112.489 612.8 114.589 613.8 116.589C615.5 120.189 615.1 123.889 611.5 136.089C609.9 141.689 609.7 141.889 606.4 141.889C598.6 141.889 591.3 147.089 587.4 155.389C583.2 164.189 584.5 173.489 590.8 179.389C593.7 182.089 593.8 182.389 592.5 184.889C587.5 194.489 573.7 198.089 567.1 191.389C564.8 189.189 564.5 187.989 564.6 182.589C564.6 177.389 566.1 171.989 573.9 149.889C579 135.289 584.1 121.689 585.3 119.589C589.7 111.689 600.9 107.789 608.7 111.589Z" fill="black"/>
<path d="M62.1 87.0888C56.5 90.0888 0 150.489 0 153.389C0 154.689 7.5 163.489 20.1 176.889C61.4 220.989 61.3 220.889 70.7 220.889C83.1 220.889 90.4 210.189 84.8 200.189C83.5 197.889 73.6 186.489 62.8 174.989C51.9 163.489 43 153.789 43 153.389C43 153.089 51.7 143.589 62.3 132.289C72.8 121.089 82.3 110.189 83.2 108.089C90.1 93.2888 76.3 79.5888 62.1 87.0888Z" fill="black"/>
<path d="M973 85.6887C970.1 86.9887 967.4 89.3887 965.6 92.0887C963.4 95.4887 963.3 103.589 965.4 108.089C966.8 110.889 977.6 123.089 1003.6 150.889L1005.9 153.389L986.9 173.889C976.4 185.189 966.5 196.189 964.9 198.289C959.4 205.689 961.7 215.089 970.1 219.389C974.2 221.589 982.3 221.289 987 218.889C990.9 216.889 1046.5 158.889 1048.4 154.989C1048.8 153.889 1048.8 152.389 1048.4 151.589C1047.6 150.189 1001.2 100.389 992.9 92.0887C986.9 85.9887 978.4 83.2887 973 85.6887Z" fill="black"/>
</g>
<defs>
<clipPath id="clip0_14_33">
<rect width="1048.7" height="232.196" fill="white"/>
</clipPath>
</defs>
</svg>
